<svg xmlns="http://www.w3.org/2000/svg" width="1000" height="1000">
  <path d="m616 52 74 1h12l17 1c34 0 34 0 41 7q8 8 8 21v24l1 74v3q-1 11-6 21l-1 2-3 7-1 2-61 120-63 126-7 12-12 25q3 2 5 1h20l104 2h3q14 1 25 10 8 12 7 26v16l-1 56-2 130q1 17-7 30-12 11-28 9l-17-1h-14l-178-2-69-1-1 3-4 8-1 3-2 4-6 10-9 17-2 3-12 24-2 3-24 44q-6 15-20 20l-13 1-101-2h-17q-10-1-17-7l-2-2-1-1q-6-12-5-25v-3l-1-78c0-27 0-27 7-38l5-8 1-3 2-4 7-13 5-11 66-133 2-2 61-123-119-3c-22-1-22-1-29-7l-2-2q-8-10-6-24v-27l1-168q-1-15 9-26c13-11 38-7 54-7l7-1 129-1h104l5-13 2-2 49-98 1-3 5-8 1-2q8-17 26-17m11 47-1 2-21 38-1 2-15 28-1 1-27 51-2 2q-4 10-14 13l-18 2h-33l-158 6h-2l-24 1h-2l-35 2-4 142v22h142q13 0 25 7 7 8 8 18 0 9-5 17l-3 4-1 3-4 8-1 3-35 68-2 3-60 117-55 106-2 3q-3 7-2 12v3l-2 51v30l42-1h3l29-1h6l6-1q4-4 7-12l4-6 1-4 7-11 18-31 23-42 1-1 5-9q5-13 18-19h12l229 1h42V599l-1-3v-40l-12-1h-4l-38-2h-3l-86-2q-14 0-26-7-8-8-8-20 2-13 9-25l1-3 42-80 1-3 1-2 3-5 1-3 51-98 1-2 16-31 1-2 33-64c9-16 14-29 13-48v-57z"/>
</svg>
