<svg xmlns="http://www.w3.org/2000/svg" width="1000" height="1000">
  <path d="m570 470 16 17 1 2q25 38 33 84l5 23a145 145 0 0 0 15 42l18 30c30 44 53 102 43 156q-4 17-12 32l-2 3c-16 30-46 53-79 63q-60 15-114-16-17-11-32-25l-2-1-25-30c-13-20-13-20-33-33h-14q-19 0-37 4l-18 4q-43 9-85-8l-2-1q-26-12-47-31l-3-2q-7-6-12-14l-2-3c-25-32-35-74-29-114a147 147 0 0 1 73-103l3-2q31-15 63-21c33-8 57-21 83-41 59-46 134-67 195-15m-168 60c-32 25-65 38-103 48-28 6-51 14-72 34l-2 2a80 80 0 0 0-24 54q-1 27 10 52l1 3c10 22 41 39 62 48 21 7 45 3 66-1l24-4c27-5 54-5 77 11q18 14 31 32l27 32c16 17 42 30 65 31q37 2 64-24 21-24 18-55 0-14-4-27l-1-2q-12-38-34-71l-23-40q-12-31-17-63c-9-48-9-48-39-85-46-30-89-4-126 25M550 73l7 6 2 2c18 14 27 37 29 59 7 62-26 141-65 189-26 31-61 53-102 57h-18q-15 0-28-4l-7-1q-8 0-15-6c-26-29-43-63-42-103q5-72 49-131l1-2a261 261 0 0 1 55-54c39-28 91-43 134-12m-137 87c-24 30-46 66-50 105v2a134 134 0 0 0 1 38c2 12 2 12 9 22l10 7q18 9 38 3 26-6 45-22l3-2q16-14 26-34l1-2c21-38 48-95 38-139q-6-18-23-28c-35-16-78 25-98 50m332-28 2 2 2 2c45 38 59 111 64 166l1 19c1 45-10 88-41 122l-2 2c-20 21-49 35-78 36-31 1-58-13-79-34-30-29-45-68-45-108q-1-28 4-54l1-4a359 359 0 0 1 35-99l1-2c14-27 35-54 65-64l2-1c22-6 50 3 68 17m-74 36-2 2c-38 38-52 110-52 162q-1 41 25 72l2 3q17 20 42 24c19 1 34-9 48-22 20-20 27-50 28-78 1-50-8-121-42-160q-9-9-22-10h-2c-14-1-14-1-25 7m183 331 5 5 2 2c19 18 30 45 33 71v3c4 36-5 72-28 100l-2 3c-20 23-50 37-80 40q-41 2-71-25a101 101 0 0 1-34-74v-13q0-55 38-95l2-2c34-36 95-46 135-15m-107 58-2 2a87 87 0 0 0-25 56q2 30 24 50 18 15 41 11 24-3 42-22l2-2c13-13 18-32 19-49v-2c1-20-5-42-18-57q-12-13-31-13-31 3-52 26M263 293a112 112 0 0 1 35 53l5 17a138 138 0 0 1-2 67c-8 31-27 59-55 75a84 84 0 0 1-57 10h-3q-35-6-54-35-32-46-23-101 12-54 56-84a117 117 0 0 1 37-16c21-4 44 0 61 14m-93 54q-11 16-17 35l-1 2q-7 31 8 58 14 24 39 34c10 2 23-4 31-9q27-17 33-48c5-28 1-58-15-82q-8-12-21-17c-23-2-43 11-57 27"/>
</svg>
