<svg xmlns="http://www.w3.org/2000/svg" width="1000" height="1000">
  <path d="m913 150 5 5 1 1q16 21 13 48c-4 84-36 174-56 256q-21 79-38 160l-1 2-29 130-1 3-22 83-2 4c-6 19-14 38-32 49-20 10-40 7-60 0a334 334 0 0 1-64-32l-32-18a2332 2332 0 0 0-144-83q-31-18-59-40l-3-2q-16-13-18-32 0-23 16-40l23-22 10-8 12-11 18-16 9-8 12-12 8-7 2-1 10-10 3-1q-1-5-5-7-9-3-19 0l-23 12-17 9-19 11-121 64q-10 8-23 6l-18-6-12-4-4-1a532 532 0 0 1-101-49l-8-5c-64-37-64-37-73-62q-3-17 5-32c19-29 62-43 92-56l24-11 223-98 2-1 169-70 3-2 3-1 49-20a2983 2983 0 0 1 173-66c89-30 89-30 119-9m-51 45h-3l-25 7-3 1a2468 2468 0 0 0-140 49q-118 45-234 95l-2 1-104 45-3 1-214 97-4 1-15 8-3 2-4 4a859 859 0 0 0 145 76l2 2 8 3 2 1q7 2 14-3l3-1 31-17 28-15 55-29 55-29 55-29 25-13 31-16 55-29 2-1 25-14q10-5 21-2 10 4 15 13 5 12 0 23-3 6-10 12l-17 19-17 18-15 15-2 2-2 2-5 6-13 13-3 3-7 7-8 8-109 105-7 7-12 10-10 9-17 16q5 7 12 11l3 2 45 31 9 5q33 22 68 42l8 5 87 50 2 1c20 11 43 23 66 24l12-38q22-81 39-163 21-101 47-202l38-158 11-51v-2c4-18 4-18 5-35v-7zM132 91h14q35-2 62 19l2 1q21 18 24 47 1 31-20 55l-1 2q3 5 7 8 21 26 18 59c-2 23-2 23-10 31q-8 8-19 6t-17-12q-4-13 0-26 2-14-5-25l-3-4-1-2q-13-9-28-10h-3l-5-1v3l2 49v3q0 10-6 18-7 7-18 6-9 0-16-8-5-9-5-20v-4l-1-4v-2a1846 1846 0 0 1 0-130v-29q-2-13 6-23l2-2 2-2q10-4 19-3m16 41v61c15 0 24 0 35-10q8-9 9-23 0-12-8-21-12-8-26-8h-3zm230-40c11 7 13 23 16 34v2c11 49 18 110-9 155q-9 13-23 22l-3 2q-25 13-54 5-30-10-44-39c-16-36-14-79-10-117v-3l4-30v-3q1-14 10-23 10-7 22-6 10 4 15 14c4 13 0 27-2 39q-2 16-2 34v2c-1 43-1 43 15 80q7 7 17 7 6 0 10-4l2-1q4-1 4-5l1-2q11-25 9-51v-2q0-42-13-81-3-10 1-19 6-10 16-14 10-1 18 4"/>
</svg>
