<svg xmlns="http://www.w3.org/2000/svg" width="1000" height="1000">
  <path d="m913 150 5 5 1 1q16 21 13 48c-4 84-36 174-56 256q-21 79-38 160l-1 2-29 130-1 3-22 83-2 4c-6 19-14 38-32 49-20 10-40 7-60 0a334 334 0 0 1-64-32l-32-18a2332 2332 0 0 0-144-83q-31-18-59-40l-3-2q-16-13-18-32 0-23 16-40l23-22 10-8 12-11 18-16 9-8 12-12 8-7 2-1 10-10 3-1q-1-5-5-7-9-3-19 0l-23 12-17 9-19 11-121 64q-10 8-23 6l-18-6-12-4-4-1a532 532 0 0 1-101-49l-8-5c-64-37-64-37-73-62q-3-17 5-32c19-29 62-43 92-56l24-11 223-98 2-1 169-70 3-2 3-1 49-20a2983 2983 0 0 1 173-66c89-30 89-30 119-9m-51 45h-3l-25 7-3 1a2468 2468 0 0 0-140 49q-118 45-234 95l-2 1-104 45-3 1-214 97-4 1-15 8-3 2-4 4a859 859 0 0 0 145 76l2 2 8 3 2 1q7 2 14-3l3-1 31-17 28-15 55-29 55-29 55-29 25-13 31-16 55-29 2-1 25-14q10-5 21-2 10 4 15 13 5 12 0 23-3 6-10 12l-17 19-17 18-15 15-2 2-2 2-5 6-13 13-3 3-7 7-8 8-109 105-7 7-12 10-10 9-17 16q5 7 12 11l3 2 45 31 9 5q33 22 68 42l8 5 87 50 2 1c20 11 43 23 66 24l12-38q22-81 39-163 21-101 47-202l38-158 11-51v-2c4-18 4-18 5-35v-7zM343 90l8 7 3-3q14-13 34-13 24 3 40 21c23 32 20 75 21 112v25c1 16 1 16-5 22l-2 2-2 2q-7 4-16 2-7-3-12-11-3-13-2-27l-3-70v-2c-2-12-4-26-14-34l-7-3-4 2c-10 15-10 32-9 49l1 29c1 16 1 16-5 23q-6 5-13 5-11 0-17-9-2-5-2-12v-7c0-39 0-39-12-75q-7-7-18-7c-5 0-5 0-9 2-7 11-1 37 0 49l4 110q2 15-8 29l-3 2q-4 4-10 4-10-3-15-12-4-8-5-18v-31l-2-59v-3l-2-30c-2-49-2-49 12-67 19-20 53-18 74-4m-136 7 2 2c20 18 28 50 31 76v3c4 37 2 82-22 113a76 76 0 0 1-37 23h-2a118 118 0 0 1-41 4c-29 0-29 0-36-5q-10-13-9-30v-23l-1-34-1-73v-27c0-33 0-33 7-41 25-24 86-8 109 12m-73 22-2 12v3l-1 86v53c10 5 29 1 39-2q12-4 18-14c15-31 14-74 3-106q-4-18-19-27l-4-2-2-1q-16-3-32-2"/>
</svg>
