<svg xmlns="http://www.w3.org/2000/svg" width="1000" height="1000">
  <path d="M850 78q8 3 9 11a52 52 0 0 1-15 43l-4 5-6 6-6 9-67 78-2 2-55 65-45 53-21 25-2 2-48 57 12 19 2 2 10 14 2 3 14 21 2 3 13 18 25 36 42 60 10 15 61 87 25 36 64 92 3 3 4 6c7 11 11 19 10 32l-4 9-2 3q-8 9-19 12h-46l-117-1c-13 0-24 0-35-9l-11-15-2-3-15-23-2-2-9-14-60-88-10-14-44-65-10-14-26-37-1-3-10-13-1-3-3-5-6-6-1 2-5 7-9 10-13 14-9 11-9 10-6 8-19 23-10 11-12 13-9 10-6 8-13 14-9 11-9 10-6 8-19 23-10 11-12 13-9 10-6 8-19 23-10 11-18 21-15 18q-8 10-20 12-13 2-24-7-10-9-9-21 1-19 16-31l8-9 10-11 21-24 10-11 19-23 13-14 11-13 17-20 13-14 19-22 10-11 19-23 13-14 11-13 17-20 13-14 19-22 12-14 13-15-5-10-2-3-3-3-7-11-10-14-18-28-8-11-4-5-19-29-2-2-47-70-8-11-4-5-19-29-2-2-47-70-8-11-4-5-6-10-2-2-23-34c-23-34-23-34-21-48q4-11 13-17 11-6 23-6h147q17-1 30 9l14 19 2 3 10 15 128 184 2 3 33 47 11-12 19-21 18-21 17-21 13-14 9-11 16-18 18-21 18-21 17-21 13-14 9-11 16-18 18-21 18-21 17-22c11-12 31-29 48-22m-618 88 5 10 23 32 61 88 76 111 62 89 78 114 69 100 58 84 13 18 3 5 7 13q4 10 13 16 24 4 47 1l18-1 35-1-18-27-70-101-71-103-68-98-69-101-68-97-69-100-14-20-16-23-2-4q-2-4-6-6h-11l-33 1z"/>
</svg>
