<svg xmlns="http://www.w3.org/2000/svg" width="1000" height="1000">
  <path d="M562 67a187 187 0 0 1 40 36 343 343 0 0 1 41 57 618 618 0 0 1 47 100c28 68 48 141 50 216v3c2 92-22 189-87 257q-18 19-39 33l2 2q31 30 33 71l-1 9q40-19 73-46l2-1c58-48 98-112 110-187v-3q8-51 0-102l-1-4q-7-58-33-112l-1-3q-21-42-52-79-10-10-9-24 2-10 9-18 10-8 22-5 18 6 27 23l2 2q21 28 38 59l1 2a443 443 0 0 1 52 191 360 360 0 0 1-67 233l-1 2a446 446 0 0 1-126 111l-2 1c-85 50-191 62-298 36q-53-14-98-43l-3-2a376 376 0 0 1-61-49l-4-4-2-1v-2h-2l-3-4-7-7-11-12-7-9-18-24-1-2a390 390 0 0 1-70-222 355 355 0 0 1 39-180 327 327 0 0 1 100-128q49-36 107-58l2-1q13-5 25-1 11 6 15 17 4 12-2 23-9 11-23 15l-11 4-2 1a327 327 0 0 0-154 130l-1 2-5 8-2 3q-7 14-12 29l-1 3q-11 36-17 74v3a367 367 0 0 0 31 197l1 3a376 376 0 0 0 41 64l1-2q13-27 40-37l20-4-2-3q-31-54-30-115v-3a272 272 0 0 1 76-175 609 609 0 0 1 55-61l7-7 16-20 1-2c36-46 40-103 37-160l-2-34c-4-61-4-61 11-78 27-27 68-4 94 14m-54 60q-2 4-1 10v2l2 16c5 80-5 152-58 215l-24 26-2 3-28 29-14 15c-41 47-67 100-63 163 4 42 23 84 55 112 39 30 87 43 136 37q45-6 82-34l3-2q39-31 60-77l3-6c42-88 34-193-4-323a768 768 0 0 0-52-116l-1-2a176 176 0 0 0-23-34l-24-27-2-2-4-4-2-2c-10-8-29-6-39 1M291 767q-6 11-4 23c5 23 18 31 37 43a337 337 0 0 0 245 45q11-2 19-9l2-2q9-9 10-21-2-21-17-34c-10-8-28-13-41-12l-18 4a221 221 0 0 1-176-39q-5-3-12-4h-2l-19-1h-2q-12-1-22 7"/>
</svg>
