<svg xmlns="http://www.w3.org/2000/svg" width="1000" height="1000">
  <path d="M547 127h19q47-1 94 2h2l25 2h3c204 16 204 16 258 75 43 53 45 129 45 194v172c0 67 0 67-4 99v2c-5 40-16 82-43 114l-1 2c-58 66-159 76-241 82q-52 4-106 5H449c-178 0-178 0-375-69l-3-3c-44-38-56-97-61-152v-2a679 679 0 0 1-2-79L6 462C1 263 1 263 32 227q10-9 23-9 11 1 18 10 7 10 4 22 0 7-4 13a171 171 0 0 0-10 53l-1 53 1 66 1 68v3l1 70v2c-2 99-2 99 41 183q9 9 19 15l2 1c54 33 122 38 184 42h3a1677 1677 0 0 0 153 2h35c140 2 140 2 400-64 25-27 32-68 35-103v-4l1-10v-3l1-80-1-71-1-32v-3c5-113 5-113-38-212-61-58-200-51-278-55h-3a1740 1740 0 0 0-169 1h-3q-14-1-23-12-7-11-4-23 4-11 15-17 11-5 23-5h14z"/>
  <path d="m461 345 3 2a758 758 0 0 1 160 99l2 1 35 32 2 2q10 9 11 22 0 13-9 22l-20 17q-90 70-201 101l-2 1q-15 4-29-3-10-7-13-18l-1-14v-2a1701 1701 0 0 1 1-225v-2l2-14v-3q2-14 13-24c15-10 31 0 46 6m-9 56-2 9v14a816 816 0 0 0 1 93l3 63q84-23 152-77l-11-11-3-2-1-2-6-4-47-34-2-2-39-24-3-1c-20-14-20-14-42-22M132 91h14q35-2 62 19l2 1q21 18 24 47 1 31-20 55l-1 2q3 5 7 8 21 26 18 59c-2 23-2 23-10 31q-8 8-19 6t-17-12q-4-13 0-26 2-14-5-25l-3-4-1-2q-13-9-28-10h-3l-5-1v3l2 49v3q0 10-6 18-7 7-18 6-9 0-16-8-5-9-5-20v-4l-1-4v-2a1846 1846 0 0 1 0-130v-29q-2-13 6-23l2-2 2-2q10-4 19-3m16 41v61c15 0 24 0 35-10q8-9 9-23 0-12-8-21-12-8-26-8h-3zm230-40c11 7 13 23 16 34v2c11 49 18 110-9 155q-9 13-23 22l-3 2q-25 13-54 5-30-10-44-39c-16-36-14-79-10-117v-3l4-30v-3q1-14 10-23 10-7 22-6 10 4 15 14c4 13 0 27-2 39q-2 16-2 34v2c-1 43-1 43 15 80q7 7 17 7 6 0 10-4l2-1q4-1 4-5l1-2q11-25 9-51v-2q0-42-13-81-3-10 1-19 6-10 16-14 10-1 18 4"/>
</svg>
